<svg xmlns="http://www.w3.org/2000/svg" width="1024" height="577" fill="none" viewBox="0 0 1024 577">
  <g clip-path="url(#a)">
    <mask id="b" fill="#fff">
      <path d="M441 215h120v289c0 6.075-4.925 11-11 11h-98c-6.075 0-11-4.925-11-11V215Z"/>
    </mask>
    <path fill="#D9D9D9" fill-opacity=".3" d="M441 215h120v289c0 6.075-4.925 11-11 11h-98c-6.075 0-11-4.925-11-11V215Z"/>
    <path fill="#46CCC3" d="M441 215h120-120Zm125 289c0 8.837-7.163 16-16 16h-98c-8.837 0-16-7.163-16-16h10a6 6 0 0 0 6 6h98a6 6 0 0 0 6-6h10Zm-114 16c-8.837 0-16-7.163-16-16V215h10v289a6 6 0 0 0 6 6v10Zm114-305v289c0 8.837-7.163 16-16 16v-10a6 6 0 0 0 6-6V215h10Z" mask="url(#b)"/>
    <rect width="110" height="62" x="446" y="448" fill="#547AE1" rx="6"/>
    <path fill="#fff" d="M495.85 496a.977.977 0 0 1-.72-.288c-.16-.224-.24-.48-.24-.768 0-.16.016-.288.048-.384.064-.096.112-.176.144-.24l7.344-10.224c-.8.192-1.664.288-2.592.288-1.792-.032-3.392-.352-4.8-.96s-2.608-1.424-3.6-2.448a10.982 10.982 0 0 1-2.256-3.552 11.254 11.254 0 0 1-.768-4.128c0-1.408.24-2.784.72-4.128a11.397 11.397 0 0 1 2.256-3.648c1.024-1.088 2.288-1.952 3.792-2.592 1.504-.672 3.28-1.008 5.328-1.008 2.016 0 3.776.32 5.28.96 1.536.608 2.816 1.456 3.84 2.544 1.056 1.056 1.824 2.256 2.304 3.6.512 1.344.768 2.736.768 4.176 0 1.312-.192 2.512-.576 3.6a14.589 14.589 0 0 1-1.392 2.928 39.206 39.206 0 0 1-1.536 2.4l-9.216 12.912c-.128.16-.304.368-.528.624-.224.224-.56.336-1.008.336h-2.592Zm4.656-15.504c1.344 0 2.576-.288 3.696-.864 1.152-.608 2.064-1.44 2.736-2.496.672-1.088 1.008-2.384 1.008-3.888s-.336-2.784-1.008-3.84a6.647 6.647 0 0 0-2.736-2.496c-1.12-.608-2.352-.912-3.696-.912a7.525 7.525 0 0 0-3.648.912 6.723 6.723 0 0 0-2.688 2.496c-.672 1.056-1.008 2.336-1.008 3.84s.336 2.8 1.008 3.888a7.203 7.203 0 0 0 2.688 2.496 7.86 7.86 0 0 0 3.648.864Z"/>
    <rect width="110" height="62" x="446" y="381" fill="#547AE1" rx="6"/>
    <path fill="#fff" d="M500.794 429.48c-2.208 0-4.08-.336-5.616-1.008-1.504-.704-2.736-1.664-3.696-2.88s-1.664-2.608-2.112-4.176a22.624 22.624 0 0 1-.72-4.992c-.032-.864-.064-1.776-.096-2.736v-2.88c.032-.992.064-1.936.096-2.832.032-1.76.272-3.424.72-4.992.48-1.6 1.184-2.992 2.112-4.176.96-1.216 2.208-2.16 3.744-2.832 1.536-.704 3.392-1.056 5.568-1.056 2.208 0 4.064.352 5.568 1.056 1.536.672 2.784 1.616 3.744 2.832.96 1.184 1.664 2.576 2.112 4.176.48 1.568.736 3.232.768 4.992.032.896.048 1.84.048 2.832.032.96.032 1.92 0 2.88 0 .96-.016 1.872-.048 2.736-.032 1.76-.288 3.424-.768 4.992-.448 1.568-1.152 2.96-2.112 4.176-.928 1.216-2.16 2.176-3.696 2.88-1.504.672-3.376 1.008-5.616 1.008Zm0-4.08c2.496 0 4.336-.816 5.52-2.448 1.216-1.664 1.84-3.92 1.872-6.768.064-.928.096-1.824.096-2.688v-2.64c0-.896-.032-1.776-.096-2.64-.032-2.784-.656-5.008-1.872-6.672-1.184-1.696-3.024-2.544-5.52-2.544-2.464 0-4.304.848-5.52 2.544-1.184 1.664-1.808 3.888-1.872 6.672 0 .864-.016 1.744-.048 2.64v2.64c.032.864.048 1.76.048 2.688.064 2.848.704 5.104 1.92 6.768 1.216 1.632 3.04 2.448 5.472 2.448Z"/>
    <rect width="110" height="62" x="446" y="314" fill="#547AE1" rx="6"/>
    <path fill="#fff" d="M500.579 362.48c-2.528 0-4.672-.432-6.432-1.296-1.728-.896-3.056-2.048-3.984-3.456-.896-1.408-1.376-2.896-1.44-4.464-.032-.288.048-.512.24-.672.192-.16.432-.24.72-.24h2.592c.288 0 .544.064.768.192.224.128.4.4.528.816.32 1.184.832 2.16 1.536 2.928a7.03 7.03 0 0 0 2.496 1.632c.96.32 1.952.48 2.976.48 1.376 0 2.624-.272 3.744-.816a6.647 6.647 0 0 0 2.736-2.496c.672-1.12 1.008-2.464 1.008-4.032 0-1.44-.336-2.672-1.008-3.696-.64-1.056-1.536-1.856-2.688-2.4-1.12-.576-2.384-.864-3.792-.864-1.056 0-1.92.128-2.592.384a7.308 7.308 0 0 0-1.728.912c-.448.352-.864.656-1.248.912a1.989 1.989 0 0 1-1.2.384h-2.496c-.288 0-.544-.096-.768-.288-.224-.224-.32-.48-.288-.768l1.536-16.032c.032-.384.144-.672.336-.864.224-.224.512-.336.864-.336h16.752c.32 0 .576.112.768.336.224.192.336.448.336.768v1.872c0 .352-.112.624-.336.816-.192.192-.448.288-.768.288h-13.824l-.912 9.456c.448-.288 1.168-.624 2.16-1.008.992-.416 2.352-.624 4.08-.624 1.568 0 3.04.24 4.416.72a11.353 11.353 0 0 1 3.744 2.112 9.635 9.635 0 0 1 2.544 3.408c.608 1.312.912 2.832.912 4.56 0 2.432-.544 4.496-1.633 6.192-1.055 1.696-2.511 2.992-4.367 3.888-1.824.864-3.92 1.296-6.288 1.296Z"/>
    <rect width="110" height="62" x="674" y="68" fill="#547AE1" rx="6"/>
    <path fill="#fff" d="M728.579 116.48c-2.528 0-4.672-.432-6.432-1.296-1.728-.896-3.056-2.048-3.984-3.456-.896-1.408-1.376-2.896-1.44-4.464-.032-.288.048-.512.24-.672.192-.16.432-.24.72-.24h2.592c.288 0 .544.064.768.192.224.128.4.4.528.816.32 1.184.832 2.16 1.536 2.928a7.03 7.03 0 0 0 2.496 1.632c.96.32 1.952.48 2.976.48 1.376 0 2.624-.272 3.744-.816a6.647 6.647 0 0 0 2.736-2.496c.672-1.12 1.008-2.464 1.008-4.032 0-1.44-.336-2.672-1.008-3.696-.64-1.056-1.536-1.856-2.688-2.4-1.12-.576-2.384-.864-3.792-.864-1.056 0-1.92.128-2.592.384a7.308 7.308 0 0 0-1.728.912c-.448.352-.864.656-1.248.912a1.989 1.989 0 0 1-1.2.384h-2.496c-.288 0-.544-.096-.768-.288-.224-.224-.32-.48-.288-.768l1.536-16.032c.032-.384.144-.672.336-.864.224-.224.512-.336.864-.336h16.752c.32 0 .576.112.768.336.224.192.336.448.336.768v1.872c0 .352-.112.624-.336.816-.192.192-.448.288-.768.288h-13.824l-.912 9.456c.448-.288 1.168-.624 2.16-1.008.992-.416 2.352-.624 4.08-.624 1.568 0 3.04.24 4.416.72a11.353 11.353 0 0 1 3.744 2.112 9.635 9.635 0 0 1 2.544 3.408c.608 1.312.912 2.832.912 4.56 0 2.432-.544 4.496-1.633 6.192-1.055 1.696-2.511 2.992-4.367 3.888-1.824.864-3.92 1.296-6.288 1.296Z"/>
    <path fill="#46CCC3" d="M534.566 224.927c.071-23.098 6.401-45.911 17.79-65.805 11.489-20.151 28.19-38.51 48.818-49.657 8.462-4.464 17.713-7.573 27.142-7.796-7.542 5.129-14.906 10.183-22.447 15.311-1.636 1.122-.923 3.782-.311 5.213.382.895 2.346 4.499 3.984 3.377 10.635-7.299 21.45-14.674 32.085-21.973.178-.077.461-.408.563-.663.51.204 1.022.409 1.455.435 4.113 1.204 1.846-7.562-1.066-8.433-11.981-3.766-23.347-9.064-33.562-16.125-1.506-1.05-2.835-.692-3.041 1.3-.206 1.993.84 4.932 2.601 6.084 3.601 2.48 7.228 4.53 10.931 6.755-18.196 2.489-35.121 14.381-47.804 26.789-17.031 16.594-29.695 37.459-36.718 60.145a141.321 141.321 0 0 0-6.293 39.727c.049 2.094.941 4.677 2.601 6.083 1.558 1.661 3.245 1.151 3.272-.765v-.002Z"/>
    <path fill="#547AE0" d="M594.773 192.24c-.352 0-.64-.144-.864-.432-.192-.32-.288-.704-.288-1.152l.096-8.064c.096-3.904.144-6.928.144-9.072 0-7.456-.416-13.168-1.248-17.136.48-.736 1.088-1.104 1.824-1.104 1.184 0 2.256.272 3.216.816a6.79 6.79 0 0 1 2.448 2.112c1.248 1.856 1.872 3.936 1.872 6.24 0 2.4-.512 4.544-1.536 6.432-1.024 1.888-2.512 3.36-4.464 4.416l.096 4.848.096 2.544c.032.544.048 1.328.048 2.352.096 2.144.144 3.888.144 5.232 0 .608-.128 1.088-.384 1.44-.256.352-.656.528-1.2.528Zm1.104-19.248c1.248-1.184 2.16-2.416 2.736-3.696.608-1.312.912-2.784.912-4.416v-.048c0-.736-.08-1.664-.24-2.784a3.702 3.702 0 0 0-.528-1.152c-.256-.384-.4-.608-.432-.672-.224-.32-.816-.816-1.776-1.488l-1.248-.912c0 1.632.096 4.16.288 7.584l.288 7.584Zm14.26 20.352c-.864 0-1.648-.288-2.352-.864-.704-.576-1.312-1.36-1.824-2.352-.928-1.728-1.616-4.096-2.064-7.104-.32-2.08-.56-4.48-.72-7.2l-.048-2.544v-2.592a80.518 80.518 0 0 1-.048-3.024c0-1.92.08-3.616.24-5.088.128-1.536.448-3.056.96-4.56.512-1.312 1.248-2.24 2.208-2.784a4.224 4.224 0 0 1 1.728-.384c1.696 0 3.04.672 4.032 2.016a12.448 12.448 0 0 1 2.16 5.04c.512 2.24.8 4.384.864 6.432.128 2.272.192 4.416.192 6.432v2.736c0 .544-.08 1.568-.24 3.072-.128 1.184-.192 2.192-.192 3.024v.192c-.192.896-.288 1.952-.288 3.168 0 .896-.192 1.824-.576 2.784a6.851 6.851 0 0 1-1.632 2.448c-.704.768-1.504 1.152-2.4 1.152Zm.096-2.64c.64 0 1.184-.592 1.632-1.776.384-1.056.656-2.336.816-3.84a90.89 90.89 0 0 0 .48-5.184c.064-.832.096-1.904.096-3.216l-.048-4.416c-.064-1.728-.256-3.888-.576-6.48-.256-2.208-.736-4.16-1.44-5.856-.32-.8-.72-1.424-1.2-1.872-.48-.448-.992-.672-1.536-.672-.8 0-1.392.624-1.776 1.872-.48 1.312-.8 2.752-.96 4.32a52.982 52.982 0 0 0-.336 4.848l-.048 1.584a27 27 0 0 0-.048 1.824v.192c0 2.144.224 4.784.672 7.92.512 4.256 1.264 7.28 2.256 9.072.64 1.12 1.312 1.68 2.016 1.68Zm9.19 1.536c-.352 0-.64-.144-.864-.432-.192-.32-.288-.704-.288-1.152l.096-8.064c.096-3.904.144-6.928.144-9.072 0-7.456-.416-13.168-1.248-17.136.48-.736 1.088-1.104 1.824-1.104 1.184 0 2.256.272 3.216.816a6.79 6.79 0 0 1 2.448 2.112c1.248 1.856 1.872 3.936 1.872 6.24 0 2.4-.512 4.544-1.536 6.432-1.024 1.888-2.512 3.36-4.464 4.416l.096 4.848.096 2.544c.032.544.048 1.328.048 2.352.096 2.144.144 3.888.144 5.232 0 .608-.128 1.088-.384 1.44-.256.352-.656.528-1.2.528Zm1.104-19.248c1.248-1.184 2.16-2.416 2.736-3.696.608-1.312.912-2.784.912-4.416v-.048c0-.736-.08-1.664-.24-2.784a3.702 3.702 0 0 0-.528-1.152c-.256-.384-.4-.608-.432-.672-.224-.32-.816-.816-1.776-1.488l-1.248-.912c0 1.632.096 4.16.288 7.584l.288 7.584Z"/>
    <path fill="#46CCC3" d="M377.268 84.348c22.445 5.453 43.154 16.926 59.846 32.639 16.917 15.869 30.877 36.39 36.909 59.048 2.369 9.269 3.236 18.99 1.254 28.211-3.23-8.53-6.427-16.869-9.657-25.397-.71-1.853-3.462-1.779-4.996-1.518-.959.164-4.922 1.233-4.213 3.087 4.619 12.043 9.27 24.28 13.889 36.323.033.192.289.544.514.702-.318.448-.637.898-.763 1.314-2.13 3.719 6.924 3.558 8.449.929 6.455-10.773 14.257-20.591 23.504-28.878 1.372-1.221 1.334-2.597-.555-3.261-1.89-.665-4.992-.333-6.523 1.111-3.251 2.923-6.089 5.973-9.116 9.055 1.82-18.275-5.799-37.505-14.908-52.731-12.167-20.43-29.506-37.609-49.929-49.726a141.352 141.352 0 0 0-37.166-15.38c-2.049-.442-4.768-.175-6.522 1.11-1.979 1.129-1.876 2.888-.019 3.361h.002Z"/>
    <path fill="#547AE0" d="M351.864 192.24c-.352 0-.64-.144-.864-.432-.192-.32-.288-.704-.288-1.152l.096-8.064c.096-3.904.144-6.928.144-9.072 0-7.456-.416-13.168-1.248-17.136.48-.736 1.088-1.104 1.824-1.104 1.184 0 2.256.272 3.216.816a6.79 6.79 0 0 1 2.448 2.112c1.248 1.856 1.872 3.936 1.872 6.24 0 2.4-.512 4.544-1.536 6.432-1.024 1.888-2.512 3.36-4.464 4.416l.096 4.848.096 2.544c.032.544.048 1.328.048 2.352.096 2.144.144 3.888.144 5.232 0 .608-.128 1.088-.384 1.44-.256.352-.656.528-1.2.528Zm1.104-19.248c1.248-1.184 2.16-2.416 2.736-3.696.608-1.312.912-2.784.912-4.416v-.048c0-.736-.08-1.664-.24-2.784a3.702 3.702 0 0 0-.528-1.152c-.256-.384-.4-.608-.432-.672-.224-.32-.816-.816-1.776-1.488l-1.248-.912c0 1.632.096 4.16.288 7.584l.288 7.584Zm16.324 19.872c-1.984 0-3.552-.864-4.704-2.592-1.248-1.76-2.128-3.92-2.64-6.48-.576-2.72-.944-5.632-1.104-8.736-.16-2.816-.24-5.872-.24-9.168v-3.984c.032-1.12.048-2.304.048-3.552a1.302 1.302 0 0 1-.384-.96c0-.384.144-.72.432-1.008.288-.32.608-.48.96-.48 1.152 0 1.728 1.136 1.728 3.408 0 1.472.08 4.256.24 8.352.16 4.096.24 6.88.24 8.352.16.416.304 1.248.432 2.496.16 1.248.24 2.272.24 3.072 0 .704.112 1.584.336 2.64.224 1.024.544 2.064.96 3.12.416 1.12.96 2.048 1.632 2.784.672.704 1.376 1.056 2.112 1.056.448 0 .816-.144 1.104-.432.32-.288.528-.704.624-1.248.192-.896.288-1.776.288-2.64v-9.36c0-1.184-.112-2.688-.336-4.512-.192-2.016-.288-3.536-.288-4.56v-.336c0-.512-.016-.976-.048-1.392l-.048-1.392c0-.896-.048-2.256-.144-4.08-.128-1.632-.192-3.008-.192-4.128 0-.352.176-.656.528-.912.384-.256.8-.384 1.248-.384l1.2 1.104v.816c0 .384-.064.848-.192 1.392-.128.896-.192 1.408-.192 1.536 0 2.912.16 6.928.48 12.048.288 5.376.432 9.552.432 12.528 0 1.6-.16 3.008-.48 4.224-.192.736-.464 1.328-.816 1.776-.32.448-.768.832-1.344 1.152-.544.32-1.248.48-2.112.48Zm10.53.192c-1.152 0-2.144-.208-2.976-.624-.512-.288-.768-.624-.768-1.008s.096-.688.288-.912c.192-.256.464-.384.816-.384.32 0 .784.128 1.392.384.672.256 1.088.384 1.248.384.608 0 1.152-.256 1.632-.768.512-.544.912-1.248 1.2-2.112.576-1.6.864-3.04.864-4.32 0-1.376-.224-2.816-.672-4.32a22.993 22.993 0 0 0-1.728-4.464l-.768-1.536c-.8-1.6-1.424-2.864-1.872-3.792a23.825 23.825 0 0 1-1.104-3.024c-.48-1.536-.72-3.024-.72-4.464 0-1.152.192-2.24.576-3.264a6.814 6.814 0 0 1 1.824-2.592c.8-.768 1.792-1.152 2.976-1.152.576 0 1.136.176 1.68.528.544.32.928.736 1.152 1.248l-.816 1.008c-.832 0-1.456-.16-1.872-.48-.576.064-1.088.352-1.536.864a5.116 5.116 0 0 0-.96 1.68 6.028 6.028 0 0 0-.288 1.824c0 1.216.16 2.464.48 3.744a21.42 21.42 0 0 0 1.344 3.552l3.36 6.72c.544 1.152.976 2.448 1.296 3.888.32 1.44.48 2.88.48 4.32 0 2.112-.512 4.096-1.536 5.952-.544.96-1.248 1.712-2.112 2.256a5.08 5.08 0 0 1-2.88.864Zm17.262-.336c-.416 0-.736-.16-.96-.48-.192-.288-.288-.656-.288-1.104 0-6.688-.128-12.336-.384-16.944-.768-.128-1.312-.192-1.632-.192-1.312 0-2.256.112-2.832.336 0 1.792.144 4.496.432 8.112.256 3.84.384 6.56.384 8.16 0 .32-.096.624-.288.912-.192.256-.432.384-.72.384-.416 0-.8-.736-1.152-2.208-.512-2.176-.928-6.736-1.248-13.68-.224-4.704-.336-9.76-.336-15.168-.032-.992-.048-2.4-.048-4.224 0-.576.272-.864.816-.864.32 0 .64.08.96.24.352.16.608.336.768.528-.128 1.024-.192 2.224-.192 3.6 0 1.344.064 2.976.192 4.896.096 2.208.144 3.872.144 4.992v.864c-.032.256-.048.56-.048.912 0 .32.032.736.096 1.248.192 0 .512-.016.96-.048.448-.032.896-.08 1.344-.144 1.056-.096 1.84-.144 2.352-.144 0-2.784-.032-5.36-.096-7.728l-.096-8.016v-1.296c.416 0 .784.08 1.104.24.32.128.56.304.72.528.288.352.464.96.528 1.824v1.104c0 2.752.16 8.016.48 15.792.288 7.04.432 12.32.432 15.84 0 .448-.144.848-.432 1.2-.256.352-.576.528-.96.528Z"/>
    <rect width="110" height="62" x="243" y="68" fill="#547AE1" rx="6"/>
    <path fill="#fff" d="M300.795 116c-.32 0-.592-.096-.816-.288a1.211 1.211 0 0 1-.288-.816v-26.88l-7.968 6.144a1.118 1.118 0 0 1-.816.24c-.288-.032-.528-.176-.72-.432l-1.248-1.584c-.192-.288-.272-.576-.24-.864.064-.288.224-.528.48-.72l10.464-8.064c.224-.16.432-.256.624-.288.192-.032.4-.048.624-.048h2.448c.32 0 .576.112.768.336.192.192.288.448.288.768v31.392c0 .32-.096.592-.288.816-.192.192-.448.288-.768.288h-2.544Z"/>
  </g>
  <defs>
    <clipPath id="a">
      <path fill="#fff" d="M0 0h1024v577H0z"/>
    </clipPath>
  </defs>
</svg>
